# xmcd
#
# Track frame offsets:
#	150
#	11620
#	22714
#	34476
#	45213
#	55460
#	67247
#	76466
#	87373
#	97440
#	106447
#
# Disc length: 1554 seconds
#
# Revision: 0
# Processed by: cddbd v1.4PL0 Copyright (c) Steve Scherf et al.
# Submitted via: dBpowerAMP V4.0
#
DISCID=9006100b
DTITLE=Pasty Cline - '' Let the teardrops fall ''
DYEAR=1900
DGENRE=
TTITLE0=Let the teardrops fall 
TTITLE1=Hungry for love 
TTITLE2=Today tomorow and forever
TTITLE3=I cried all the way to the alter
TTITLE4=Pick me up on your way down
TTITLE5=If i could only stay asleep
TTITLE6=Try again
TTITLE7=I can't forget
TTITLE8=Three cigarettes ( in the ashtray)
TTITLE9=I love you honey
TTITLE10=Walking dream
EXTD=
EXTT0=
EXTT1=
EXTT2=
EXTT3=
EXTT4=
EXTT5=
EXTT6=
EXTT7=
EXTT8=
EXTT9=
EXTT10=
PLAYORDER=
